<?xml version="1.0" encoding="iso-8859-1"?>
<!-- Generator: Adobe Illustrator 16.0.0, SVG Export Plug-In . SVG Version: 6.00 Build 0)  -->
<!DOCTYPE svg PUBLIC "-//W3C//DTD SVG 1.1//EN" "http://www.w3.org/Graphics/SVG/1.1/DTD/svg11.dtd">
<svg version="1.1" id="Capa_1" xmlns="http://www.w3.org/2000/svg" xmlns:xlink="http://www.w3.org/1999/xlink" x="0px" y="0px"
	 width="477.556px" height="477.556px" viewBox="0 0 477.556 477.556" style="enable-background:new 0 0 477.556 477.556;"
	 xml:space="preserve">
<g>
	<g>
		<path d="M227.676,212.543c7.183-0.008,14.358-0.096,21.521-0.449c22.822,14.311,86.063,38.345,102.134,10.503
			c16.734-29.006,0-68.062-13.394-78.101c-7.205-5.412-12.779-13.7-16.506-19.19c-0.545-17.805-7.054-30.929-21.564-42.608
			c-14.735-11.872-44.475-28.217-49.527-49.46c8.127,3.166,15.953,3.054,25.322,2.435c4.81-0.323,10.304,1.719,14.964,0.673
			c4.817-1.074,7.715-3.468,8.412,4.554c1.126,13.024-6.66,27.108,12.435,28.276c4.316,0.269,4.284-6.428,0-6.696
			c-11.974-0.728-5.879-14.09-5.742-21.58c0.092-4.703-2.345-9.979-6.557-12.354c-5.334-3.032-9.097,1.452-15.24,0.609
			c-11.052-1.513-20.213,1.581-30.355-1.881c0.152-0.024,0.328-0.03,0.473-0.064c16.077-2.601,26.32-15.18,41.284-20.264
			c6.793-2.306,12.88,8.771,16.178,12.742c5.274,6.344,11.649,11.385,18.343,16.111c3.534,2.495,6.876-3.312,3.374-5.776
			c-9.197-6.502-16.122-13.896-23.091-22.586c-2.637-3.3-6.484-7.302-11.093-7.43c-6.063-0.165-11.009,2.531-16.182,5.432
			c-11.493,6.456-19.545,13.302-32.14,15.184c-0.032-0.549-0.032-1.108-0.084-1.657c-0.192-3.721-5.526-4.623-6.58-0.886
			c-0.277,0.97-0.441,1.93-0.613,2.888c-0.345-1.335-0.94-2.607-2.19-4.248c-1.28-1.677-3.597-2.353-5.26-0.673
			c-0.89,0.896-1.713,1.735-2.561,2.583c-1.844-9.806-8.816-16.727-20.883-14.485c-5.881,1.092-24.87,8.666-18.376,18.104
			c3.124,4.538,8.762,5.873,14.006,6.328c6.317,0.549,13.14,0.746,19.995,0.667c1.192,0.974,3.212,0.923,4.561-0.081
			c1.791-0.062,3.564-0.188,5.348-0.298c0.751,0.852,1.89,1.218,3.006,1.1c-1.124,31.332-21.033,47.762-48.594,61.634
			c-14.922,7.512-33.342,14.958-35.185,31.983c-3.661,5.297-9.664,14.907-17.697,20.937c-13.391,10.041-30.129,49.097-13.391,78.103
			C142.154,250.147,204.25,226.9,227.676,212.543z M214.724,22.264c-5.003,0.014-20.155-1.036-10.982-7.628
			c10.824-7.79,21.86-4.344,23.352,7.298C222.973,22.092,218.844,22.249,214.724,22.264z M192.733,98.886
			c10.802-5.167,21.596-11.289,30.996-18.756c13.477-10.702,20.54-23.221,23.072-38.333c5.519,11.053,15.982,20.474,25.099,28.267
			c20.398,17.446,41.405,26.473,42.848,55.026c-4.652,9.185-20.262,27.108-38.731,42.256c-15.878,13.034-24.31,29.896-27.712,38.068
			c-6.277,0.291-12.559,0.391-18.839,0.407c-3.296-8.011-11.751-25.231-27.886-38.476c-17.326-14.208-32.137-30.875-37.754-40.467
			C163.287,111.494,180.747,104.617,192.733,98.886z"/>
		<path d="M179.287,403.106c-14.631-6.7-30.333-9.75-46.256-11.124c11.438,11.846,62.302,50,82.517,67.265
			C212.831,435.506,202.798,413.871,179.287,403.106z"/>
		<path d="M302.725,403.106c-23.267,10.656-33.31,31.955-36.155,55.398c20.723-17.548,70.11-54.661,81.563-66.438
			C332.508,393.485,317.1,396.53,302.725,403.106z"/>
		<path d="M342.723,349.795c-3.903,0-102.095,2.789-102.095,2.789s-98.19-2.789-102.094-2.789c-3.258,0-6.891,22.866-7.684,34.023
			c22.27,1.426,45.238,5.574,62.636,18.482c21.831,16.193,29.597,39.589,30.601,65.733c1.523,5.326,9.53,9.521,16.549,9.521
			c7.251,0,15.623-4.473,16.737-10.043c0.052-0.24,0.296-0.608,0.641-1.046c1.25-25.511,9.133-48.305,30.529-64.166
			c17.195-12.756,39.842-16.956,61.874-18.431C349.636,372.742,345.99,349.795,342.723,349.795z"/>
	</g>
</g>
<g>
</g>
<g>
</g>
<g>
</g>
<g>
</g>
<g>
</g>
<g>
</g>
<g>
</g>
<g>
</g>
<g>
</g>
<g>
</g>
<g>
</g>
<g>
</g>
<g>
</g>
<g>
</g>
<g>
</g>
</svg>
